<?xml version="1.0" encoding="iso-8859-1"?>
<!-- Generator: Adobe Illustrator 19.0.0, SVG Export Plug-In . SVG Version: 6.00 Build 0)  -->
<svg version="1.1" id="Capa_1" xmlns="http://www.w3.org/2000/svg" xmlns:xlink="http://www.w3.org/1999/xlink" x="0px" y="0px"
	 viewBox="0 0 512 512" style="enable-background:new 0 0 512 512;" xml:space="preserve">
<g>
	<g>
		<polygon points="410.386,55.655 410.386,476.581 121.852,476.581 121.852,512 445.805,512 445.805,55.655 		"/>
	</g>
</g>
<g>
	<g>
		<path d="M66.196,0v446.225H380.03V0H66.196z M137.554,51.585L159.2,73.232l-21.464,21.464L116.09,73.05L137.554,51.585z
			 M233.89,269.181v30.899h-30.356v-30.899c-6.35,2.926-13.213,4.39-20.077,4.39c-12.256,0-24.513-4.665-33.843-13.995
			c-18.662-18.663-18.662-49.027,0-67.689l69.345-69.345l68.89,69.384c18.622,18.623,18.622,48.988-0.037,67.649
			C273.254,274.13,251.579,277.332,233.89,269.181z M306.869,394.048l-21.646-21.646l21.464-21.464l21.646,21.646L306.869,394.048z"
			/>
	</g>
</g>
<g>
	<g>
		<path d="M266.345,213.351l-47.463-47.804l-47.804,47.804c-6.826,6.826-6.826,17.934,0,24.76c6.827,6.825,17.935,6.825,24.76-0.001
			l22.874-22.873l22.874,22.874c6.827,6.825,17.935,6.825,24.76-0.001C273.171,231.285,273.171,220.177,266.345,213.351z"/>
	</g>
</g>
<g>
</g>
<g>
</g>
<g>
</g>
<g>
</g>
<g>
</g>
<g>
</g>
<g>
</g>
<g>
</g>
<g>
</g>
<g>
</g>
<g>
</g>
<g>
</g>
<g>
</g>
<g>
</g>
<g>
</g>
</svg>
