<?xml version="1.0" standalone="no"?>
<!DOCTYPE svg PUBLIC "-//W3C//DTD SVG 20010904//EN"
 "http://www.w3.org/TR/2001/REC-SVG-20010904/DTD/svg10.dtd">
<svg version="1.0" xmlns="http://www.w3.org/2000/svg"
 width="512.000000pt" height="512.000000pt" viewBox="0 0 512.000000 512.000000"
 preserveAspectRatio="xMidYMid meet">
<metadata>
Created by potrace 1.15, written by Peter Selinger 2001-2017
</metadata>
<g transform="translate(0.000000,512.000000) scale(0.100000,-0.100000)"
fill="#000000" stroke="none">
<path d="M1745 4741 c-545 -54 -1016 -104 -1047 -110 -137 -29 -218 -143 -218
-306 0 -96 309 -3227 326 -3303 20 -93 60 -147 136 -186 80 -40 151 -43 437
-16 132 13 244 21 247 17 4 -3 1 -67 -6 -141 -15 -157 -10 -233 20 -280 44
-73 -3 -65 1257 -197 1259 -131 1285 -133 1348 -84 21 15 46 46 56 69 14 33
56 407 198 1781 100 957 181 1770 181 1806 0 88 -29 145 -91 177 -41 20 -113
30 -714 92 -367 38 -670 71 -672 73 -2 2 -14 109 -27 238 -14 129 -32 257 -40
284 -21 68 -65 118 -134 152 -95 46 -149 43 -1257 -66z m1258 26 c59 -35 95
-82 112 -146 7 -28 23 -158 36 -289 l22 -237 688 -72 c611 -63 692 -73 722
-92 43 -26 67 -75 67 -133 0 -23 -81 -823 -180 -1777 -145 -1398 -184 -1740
-198 -1764 -25 -44 -64 -69 -113 -74 -70 -7 -2342 233 -2377 251 -40 21 -70
60 -78 102 -3 18 2 112 12 209 9 96 14 178 11 182 -4 3 -140 -6 -302 -22 -246
-23 -304 -26 -346 -17 -100 23 -167 94 -188 199 -22 114 -323 3246 -316 3299
11 95 85 180 175 204 72 20 2023 209 2121 206 72 -2 93 -6 132 -29z"/>
<path d="M1855 4550 c-550 -54 -1017 -101 -1038 -103 -42 -6 -75 -29 -88 -64
-9 -25 305 -3265 320 -3300 6 -12 24 -29 40 -38 28 -14 55 -13 343 16 172 17
315 32 316 34 4 4 172 1606 172 1637 0 15 -9 13 -64 -13 -49 -23 -84 -31 -151
-36 l-87 -6 7 -152 7 -152 -89 -6 c-48 -3 -91 -2 -94 1 -4 4 -16 196 -28 426
-17 314 -19 421 -11 426 7 4 87 10 178 14 195 8 249 0 324 -50 28 -19 52 -33
53 -32 1 2 23 210 49 462 32 316 52 470 63 493 21 44 65 75 116 80 34 4 567
-46 778 -73 l45 -5 -23 228 c-12 125 -25 238 -28 251 -6 26 -60 62 -90 61 -11
-1 -470 -45 -1020 -99z"/>
<path d="M2290 4003 c-29 -11 -60 -47 -65 -77 -3 -17 -84 -755 -180 -1639
-122 -1124 -171 -1615 -165 -1632 21 -55 -4 -51 1105 -171 845 -91 1050 -110
1078 -102 30 9 37 17 46 52 21 78 361 3265 351 3291 -22 58 82 44 -2110 279
-25 2 -52 2 -60 -1z m716 -922 c244 -45 316 -79 360 -175 44 -95 23 -230 -49
-312 -67 -76 -157 -101 -295 -83 -46 6 -85 9 -88 6 -2 -2 -16 -66 -29 -142
-14 -76 -27 -140 -30 -143 -5 -5 -160 19 -173 27 -8 5 21 181 124 759 9 50 17
92 18 92 1 0 74 -13 162 -29z m366 -811 c117 -23 162 -36 218 -66 179 -94 243
-273 180 -504 -57 -211 -238 -322 -475 -291 -99 14 -284 47 -289 52 -3 3 37
235 130 757 l16 92 37 -6 c20 -3 102 -19 183 -34z"/>
<path d="M3000 2918 c0 -3 -9 -56 -20 -118 -23 -127 -23 -129 45 -131 101 -5
138 11 161 66 29 71 8 133 -53 158 -39 15 -133 33 -133 25z"/>
<path d="M3307 2098 c-16 -71 -89 -510 -85 -513 3 -3 31 -10 64 -16 182 -34
291 61 310 272 16 164 -56 247 -239 274 -41 6 -45 5 -50 -17z"/>
<path d="M1600 3008 c0 -40 3 -97 7 -126 l6 -54 56 7 c108 13 151 50 151 129
0 84 -41 116 -150 116 l-70 0 0 -72z"/>
</g>
</svg>
